<?xml version="1.0" encoding="UTF-8" standalone="no"?>
<svg
   xmlns:dc="http://purl.org/dc/elements/1.1/"
   xmlns:cc="http://creativecommons.org/ns#"
   xmlns:rdf="http://www.w3.org/1999/02/22-rdf-syntax-ns#"
   xmlns:svg="http://www.w3.org/2000/svg"
   xmlns="http://www.w3.org/2000/svg"
   xmlns:sodipodi="http://sodipodi.sourceforge.net/DTD/sodipodi-0.dtd"
   xmlns:inkscape="http://www.inkscape.org/namespaces/inkscape"
   sodipodi:docname="shape-1-green.svg"
   inkscape:version="1.0 (4035a4f, 2020-05-01)"
   inkscape:export-ydpi="25.4"
   inkscape:export-xdpi="25.4"
   inkscape:export-filename="/Users/alorozco22/Desktop/Dev/voeux/assets/images/banner/shape/shape-1-green.png"
   id="svg875"
   version="1.1"
   viewBox="0 0 301 276"
   height="276mm"
   width="301mm">
  <defs
     id="defs869" />
  <sodipodi:namedview
     inkscape:window-maximized="0"
     inkscape:window-y="23"
     inkscape:window-x="0"
     inkscape:window-height="687"
     inkscape:window-width="1252"
     showgrid="false"
     inkscape:document-rotation="0"
     inkscape:current-layer="layer1"
     inkscape:document-units="mm"
     inkscape:cy="453.17674"
     inkscape:cx="407.29178"
     inkscape:zoom="0.21225745"
     inkscape:pageshadow="2"
     inkscape:pageopacity="0.0"
     borderopacity="1.0"
     bordercolor="#666666"
     pagecolor="#ffffff"
     id="base" />
  <metadata
     id="metadata872">
    <rdf:RDF>
      <cc:Work
         rdf:about="">
        <dc:format>image/svg+xml</dc:format>
        <dc:type
           rdf:resource="http://purl.org/dc/dcmitype/StillImage" />
        <dc:title></dc:title>
      </cc:Work>
    </rdf:RDF>
  </metadata>
  <g
     id="layer1"
     inkscape:groupmode="layer"
     inkscape:label="Layer 1">
    <path
       transform="scale(0.26458333)"
       d="M 252.88281 -383.07617 A 659.57635 597.97436 0 0 0 -405.16797 214.89648 A 659.57635 597.97436 0 0 0 254.4082 812.87109 A 659.57635 597.97436 0 0 0 913.98438 214.89648 A 659.57635 597.97436 0 0 0 254.4082 -383.07617 A 659.57635 597.97436 0 0 0 252.88281 -383.07617 z M 254.4082 -173.78516 A 428.72462 388.68333 0 0 1 683.13281 214.89648 A 428.72462 388.68333 0 0 1 254.4082 603.58008 A 428.72462 388.68333 0 0 1 -174.31641 214.89648 A 428.72462 388.68333 0 0 1 254.4082 -173.78516 z "
       style="fill:#dde9af;stroke:none;stroke-width:3.77953;opacity:0.52345679"
       id="path1438" />
  </g>
</svg>
